<mxfile host="app.diagrams.net" agent="Mozilla/5.0 (Windows NT 10.0; Win64; x64) AppleWebKit/537.36 (KHTML, like Gecko) Chrome/127.0.0.0 Safari/537.36 Edg/127.0.0.0" version="24.7.7">
  <diagram name="第 1 页" id="YC4EjjZBas67DzRlnTOu">
    <mxGraphModel dx="1213" dy="744" grid="1" gridSize="10" guides="1" tooltips="1" connect="1" arrows="1" fold="1" page="1" pageScale="1" pageWidth="827" pageHeight="1169" math="0" shadow="0">
      <root>
        <mxCell id="0" />
        <mxCell id="1" parent="0" />
        <mxCell id="PaJbGAHhxo6s9p65n8qS-1" value="" style="rounded=0;whiteSpace=wrap;html=1;strokeColor=none;fillColor=none;" vertex="1" parent="1">
          <mxGeometry x="119" y="110" width="371" height="450" as="geometry" />
        </mxCell>
        <mxCell id="PaJbGAHhxo6s9p65n8qS-2" value="" style="rounded=0;whiteSpace=wrap;html=1;" vertex="1" parent="1">
          <mxGeometry x="199" y="198" width="40" height="40" as="geometry" />
        </mxCell>
        <mxCell id="PaJbGAHhxo6s9p65n8qS-3" value="var1" style="rounded=0;whiteSpace=wrap;html=1;" vertex="1" parent="1">
          <mxGeometry x="199" y="238" width="40" height="40" as="geometry" />
        </mxCell>
        <mxCell id="PaJbGAHhxo6s9p65n8qS-4" value="" style="rounded=0;whiteSpace=wrap;html=1;" vertex="1" parent="1">
          <mxGeometry x="199" y="278" width="40" height="40" as="geometry" />
        </mxCell>
        <mxCell id="PaJbGAHhxo6s9p65n8qS-5" value="f2 upval 数组" style="text;html=1;align=center;verticalAlign=middle;resizable=0;points=[];autosize=1;strokeColor=none;fillColor=none;" vertex="1" parent="1">
          <mxGeometry x="174" y="158" width="90" height="30" as="geometry" />
        </mxCell>
        <mxCell id="PaJbGAHhxo6s9p65n8qS-6" value="" style="rounded=0;whiteSpace=wrap;html=1;" vertex="1" parent="1">
          <mxGeometry x="199" y="398" width="40" height="40" as="geometry" />
        </mxCell>
        <mxCell id="PaJbGAHhxo6s9p65n8qS-7" value="var1" style="rounded=0;whiteSpace=wrap;html=1;" vertex="1" parent="1">
          <mxGeometry x="199" y="438" width="40" height="40" as="geometry" />
        </mxCell>
        <mxCell id="PaJbGAHhxo6s9p65n8qS-8" value="" style="rounded=0;whiteSpace=wrap;html=1;" vertex="1" parent="1">
          <mxGeometry x="199" y="478" width="40" height="40" as="geometry" />
        </mxCell>
        <mxCell id="PaJbGAHhxo6s9p65n8qS-9" value="f3 upval 数组" style="text;html=1;align=center;verticalAlign=middle;resizable=0;points=[];autosize=1;strokeColor=none;fillColor=none;" vertex="1" parent="1">
          <mxGeometry x="174" y="358" width="90" height="30" as="geometry" />
        </mxCell>
        <mxCell id="PaJbGAHhxo6s9p65n8qS-18" value="" style="endArrow=classic;html=1;rounded=0;exitX=1;exitY=0.5;exitDx=0;exitDy=0;entryX=0;entryY=1;entryDx=0;entryDy=0;" edge="1" parent="1" source="PaJbGAHhxo6s9p65n8qS-3" target="PaJbGAHhxo6s9p65n8qS-12">
          <mxGeometry width="50" height="50" relative="1" as="geometry">
            <mxPoint x="469" y="418" as="sourcePoint" />
            <mxPoint x="519" y="368" as="targetPoint" />
          </mxGeometry>
        </mxCell>
        <mxCell id="PaJbGAHhxo6s9p65n8qS-19" value="" style="endArrow=classic;html=1;rounded=0;exitX=1;exitY=0.5;exitDx=0;exitDy=0;entryX=0;entryY=1;entryDx=0;entryDy=0;" edge="1" parent="1" source="PaJbGAHhxo6s9p65n8qS-7" target="PaJbGAHhxo6s9p65n8qS-12">
          <mxGeometry width="50" height="50" relative="1" as="geometry">
            <mxPoint x="469" y="418" as="sourcePoint" />
            <mxPoint x="519" y="368" as="targetPoint" />
          </mxGeometry>
        </mxCell>
        <mxCell id="PaJbGAHhxo6s9p65n8qS-22" value="&lt;span style=&quot;color: rgb(0, 0, 0); font-family: Helvetica; font-size: 12px; font-style: normal; font-variant-ligatures: normal; font-variant-caps: normal; font-weight: 400; letter-spacing: normal; orphans: 2; text-align: center; text-indent: 0px; text-transform: none; widows: 2; word-spacing: 0px; -webkit-text-stroke-width: 0px; white-space: normal; background-color: rgb(251, 251, 251); text-decoration-thickness: initial; text-decoration-style: initial; text-decoration-color: initial; display: inline !important; float: none;&quot;&gt;var1 的结构体&lt;/span&gt;" style="text;html=1;align=center;verticalAlign=middle;whiteSpace=wrap;rounded=0;" vertex="1" parent="1">
          <mxGeometry x="319" y="243" width="80.5" height="30" as="geometry" />
        </mxCell>
        <mxCell id="PaJbGAHhxo6s9p65n8qS-24" value="" style="group" vertex="1" connectable="0" parent="1">
          <mxGeometry x="319" y="280" width="81" height="80" as="geometry" />
        </mxCell>
        <mxCell id="PaJbGAHhxo6s9p65n8qS-12" value="v.p" style="rounded=0;whiteSpace=wrap;html=1;" vertex="1" parent="PaJbGAHhxo6s9p65n8qS-24">
          <mxGeometry width="81" height="40" as="geometry" />
        </mxCell>
        <mxCell id="PaJbGAHhxo6s9p65n8qS-23" value="u.value" style="rounded=0;whiteSpace=wrap;html=1;" vertex="1" parent="PaJbGAHhxo6s9p65n8qS-24">
          <mxGeometry y="40" width="81" height="40" as="geometry" />
        </mxCell>
        <mxCell id="PaJbGAHhxo6s9p65n8qS-26" value="" style="endArrow=classic;html=1;rounded=0;exitX=1;exitY=0.5;exitDx=0;exitDy=0;entryX=1;entryY=0.5;entryDx=0;entryDy=0;" edge="1" parent="PaJbGAHhxo6s9p65n8qS-24" source="PaJbGAHhxo6s9p65n8qS-12" target="PaJbGAHhxo6s9p65n8qS-23">
          <mxGeometry width="50" height="50" relative="1" as="geometry">
            <mxPoint x="71" y="130" as="sourcePoint" />
            <mxPoint x="91" y="60" as="targetPoint" />
            <Array as="points">
              <mxPoint x="121" y="40" />
            </Array>
          </mxGeometry>
        </mxCell>
      </root>
    </mxGraphModel>
  </diagram>
</mxfile>
